<?xml version="1.0" encoding="UTF-8" standalone="no"?>
<!-- Created with Inkscape (http://www.inkscape.org/) -->

<svg
   width="6in"
   height="1.5in"
   viewBox="0 0 152.4 38.099999"
   version="1.1"
   id="svg8487"
   xml:space="preserve"
   inkscape:version="1.2.1 (9c6d41e410, 2022-07-14)"
   sodipodi:docname="Back_SkinnyBox.svg"
   xmlns:inkscape="http://www.inkscape.org/namespaces/inkscape"
   xmlns:sodipodi="http://sodipodi.sourceforge.net/DTD/sodipodi-0.dtd"
   xmlns:xlink="http://www.w3.org/1999/xlink"
   xmlns="http://www.w3.org/2000/svg"
   xmlns:svg="http://www.w3.org/2000/svg"><sodipodi:namedview
     id="namedview8489"
     pagecolor="#ffffff"
     bordercolor="#000000"
     borderopacity="0.25"
     inkscape:showpageshadow="2"
     inkscape:pageopacity="0.0"
     inkscape:pagecheckerboard="0"
     inkscape:deskcolor="#d1d1d1"
     inkscape:document-units="in"
     showgrid="false"
     inkscape:zoom="1.6290957"
     inkscape:cx="147.93483"
     inkscape:cy="83.481897"
     inkscape:window-width="1920"
     inkscape:window-height="1046"
     inkscape:window-x="-11"
     inkscape:window-y="-11"
     inkscape:window-maximized="1"
     inkscape:current-layer="layer1" /><defs
     id="defs8484"><clipPath
       clipPathUnits="userSpaceOnUse"
       id="clipPath428"><path
         d="M 0,234 H 306 V 0 H 0 Z"
         id="path426" /></clipPath><rect
       x="32.009434"
       y="222.22643"
       width="146.43396"
       height="22.443396"
       id="rect778-9" /></defs><g
     inkscape:label="Layer 1"
     inkscape:groupmode="layer"
     id="layer1"><image
       preserveAspectRatio="none"
       inkscape:svg-dpi="300"
       width="15.24"
       height="21.844"
       xlink:href="ingredient_0_3.svg"
       id="image10986-0"
       x="59.160831"
       y="7.6199999" /><image
       preserveAspectRatio="none"
       inkscape:svg-dpi="300"
       width="15.24"
       height="21.844"
       xlink:href="ingredient_0_4.svg"
       id="image10986-0-7"
       x="76.940834"
       y="7.6199999" /><image
       preserveAspectRatio="none"
       inkscape:svg-dpi="300"
       width="15.24"
       height="21.844"
       xlink:href="ingredient_0_1.svg"
       id="image11071"
       x="23.600832"
       y="7.6199999" /><image
       preserveAspectRatio="none"
       inkscape:svg-dpi="300"
       width="15.24"
       height="21.844"
       xlink:href="ingredient_0_2.svg"
       id="image11170"
       x="41.380833"
       y="7.6199999" /><text
       xml:space="preserve"
       style="font-variant:normal;font-weight:normal;font-stretch:normal;font-size:3.87932px;font-family:'Streusel Kuchen';-inkscape-font-specification:StreuselKuchen-Regular;writing-mode:lr-tb;white-space:pre;inline-size:37.8431;display:inline;fill:#20275b;fill-opacity:1;fill-rule:nonzero;stroke:none;stroke-width:0.352665"
       id="text186-7-8"
       x="51.690056"
       y="34.493996"
       transform="matrix(1.0002186,0,0,0.99978144,-17.640873,-0.32482233)"><tspan
         x="51.690056"
         y="34.493996"
         id="tspan36673"><tspan
           style="fill:#000000"
           id="tspan36671">Justin &amp; Kelly</tspan></tspan></text><g
       id="g422"
       transform="matrix(0.41252613,0,0,-0.41477844,-17.096609,98.061388)"><g
         id="g424"
         clip-path="url(#clipPath428)"><g
           id="g430"
           transform="translate(290.5605,209.1525)"><path
             d="m 0,0 c 0.365,0.021 0.709,-0.062 0.912,-0.311 0.027,-0.061 0.71,-0.691 0.052,-1.4 -0.271,-0.24 -1.057,-0.198 -1.167,0.948 -1.119,-0.773 -1.453,-1.553 -1.593,-2.294 -0.394,-2.48 0.233,-2.718 0.511,-2.911 0.734,-0.369 1.188,-0.053 1.413,0.128 0.21,0.16 0.727,0.917 0.965,0.811 C 1.227,-5.092 1.409,-5.222 1.405,-5.527 1.35,-6.27 0.342,-6.75 -0.145,-6.885 -0.848,-7.009 -1.895,-7.147 -2.547,-6.12 -3.07,-5.041 -3.105,-3.614 -2.766,-2.59 -2.014,-0.548 -0.67,-0.054 0,0"
             style="fill:#231f20;fill-opacity:1;fill-rule:nonzero;stroke:none"
             id="path432" /></g><g
           id="g434"
           transform="translate(284.4704,212.0266)"><path
             d="M 0,0 C 0.165,0.563 0.361,1.149 0.429,1.767 -3.165,4.956 -4.076,-6.848 -0.329,-0.746 -0.186,-0.513 -0.077,-0.262 0,0 M 0.83,0.43 C 0.748,0.16 0.673,-0.112 0.62,-0.388 c -0.304,-1.59 -1.914,-3.506 -3.384,-3.043 -0.36,0.114 -1.324,0.693 -1.377,1.977 0,2.462 2.038,5.407 4.037,4.592 0.132,-0.006 0.407,-0.128 0.547,-0.202 0.04,-0.021 0.08,0.215 0.054,0.268 0.176,1.46 -0.106,2.331 -0.662,3.52 -0.015,0.033 -0.139,0.267 -0.285,0.441 -0.137,0.164 -0.519,0.48 -0.693,0.567 -0.181,0.09 -0.362,0.119 -0.379,0.124 -0.848,0.234 -2.211,-1.719 -2.5,-2.372 -0.56,-0.231 -0.57,0.774 -0.464,1.201 0.349,1.395 2.014,2.71 3.471,2.332 0.06,-0.015 0.242,-0.05 0.426,-0.121 C -0.416,8.829 -0.243,8.728 -0.168,8.673 1.427,7.504 1.436,2.412 0.83,0.43"
             style="fill:#231f20;fill-opacity:1;fill-rule:nonzero;stroke:none"
             id="path436" /></g><g
           id="g438"
           transform="translate(282.8308,203.3222)"><path
             d="m 0,0 c -0.041,-0.021 -0.09,0.018 -0.08,0.059 0.053,0.206 0.077,0.348 0.137,0.477 0.322,0.687 0.756,1.309 1.138,1.971 0.423,0.733 0.795,1.507 1.259,2.222 0.347,0.537 0.656,1.094 1.028,1.617 0.661,0.928 1.426,1.842 2.121,2.75 0.32,0.417 0.592,0.819 0.966,1.199 0.017,0.017 0.048,0.043 0.088,0.068 C 7.056,10.617 7.2,10.502 6.969,10.12 6.359,9.114 5.757,8.105 5.128,7.108 4.678,6.396 4.227,5.704 3.76,5 3.414,4.48 3.041,3.954 2.696,3.434 2.128,2.577 1.492,1.791 0.897,0.949 0.691,0.657 0.277,0.14 0,0"
             style="fill:#231f20;fill-opacity:1;fill-rule:nonzero;stroke:none"
             id="path440" /></g></g></g><g
       id="g15385"
       transform="translate(-2.1166667)"><text
         xml:space="preserve"
         transform="matrix(0.34093068,0,0,0.3427921,97.270679,24.415867)"
         style="font-style:italic;font-variant:normal;font-weight:300;font-stretch:normal;font-size:4px;font-family:'Gotham Light';-inkscape-font-specification:Gotham-LightItalic;writing-mode:lr-tb;white-space:pre;inline-size:45.9321;display:inline;fill:#231f20;fill-opacity:1;fill-rule:nonzero;stroke:none"
         id="text450"><tspan
           x="0"
           y="0"
           id="tspan36675">
</tspan><tspan
           x="0"
           y="4.9999999"
           id="tspan36677">This product is </tspan><tspan
           x="0"
           y="9.9999997"
           id="tspan36679">homemade and not </tspan><tspan
           x="0"
           y="15"
           id="tspan36681">for resale –  processed </tspan><tspan
           x="0"
           y="19.999999"
           id="tspan36683">and prepared without </tspan><tspan
           x="0"
           y="24.999999"
           id="tspan36685">state inspection.</tspan></text><text
         xml:space="preserve"
         transform="matrix(0.34093068,0,0,0.3427921,97.223734,16.760114)"
         style="font-style:italic;font-variant:normal;font-weight:300;font-stretch:normal;font-size:5px;line-height:0;font-family:'Gotham Light';-inkscape-font-specification:Gotham-LightItalic;writing-mode:lr-tb;white-space:pre;inline-size:151.857;display:inline;fill:#231f20;fill-opacity:1;fill-rule:nonzero;stroke:none"
         id="text308-6"><tspan
           x="0"
           y="6.375"
           id="tspan36689"><tspan
             style="line-height:1.3"
             id="tspan36687">Net wt: 64g
</tspan></tspan><tspan
           x="0"
           y="12.875"
           id="tspan36693"><tspan
             style="line-height:1.3"
             id="tspan36691">Made: 2/23
</tspan></tspan><tspan
           x="0"
           y="19.375"
           id="tspan36697"><tspan
             style="line-height:1.3"
             id="tspan36695">Best By: 3/23</tspan></tspan></text></g><image
       preserveAspectRatio="none"
       inkscape:svg-dpi="300"
       width="15.24"
       height="21.844"
       xlink:href="ingredient_0_0.svg"
       id="image14718"
       x="5.8208332"
       y="7.6199999" /><text
       xml:space="preserve"
       transform="matrix(0.26458333,0,0,0.26458333,39.465613,-26.363452)"
       id="text776-5"
       style="font-style:italic;font-variant:normal;font-weight:normal;font-stretch:normal;font-size:6.66667px;line-height:1.2;font-family:'Gotham Book';-inkscape-font-specification:'Gotham Book,  Italic';font-variant-ligatures:normal;font-variant-caps:normal;font-variant-numeric:normal;font-variant-east-asian:normal;text-align:start;writing-mode:lr-tb;white-space:pre;shape-inside:url(#rect778-9);display:inline;fill:#000000"
       x="-68.295288"
       y="0"><tspan
         x="32.009766"
         y="228.3614"
         id="tspan36699">chocolates.differential@gmail.com</tspan></text></g></svg>
