<?xml version="1.0" encoding="UTF-8" standalone="no"?>
<!-- Created with Inkscape (http://www.inkscape.org/) -->

<svg
   width="6in"
   height="1.5in"
   viewBox="0 0 152.4 38.099999"
   version="1.1"
   id="svg8487"
   xml:space="preserve"
   inkscape:version="1.2.1 (9c6d41e410, 2022-07-14)"
   sodipodi:docname="Front_SkinnyBox.svg"
   xmlns:inkscape="http://www.inkscape.org/namespaces/inkscape"
   xmlns:sodipodi="http://sodipodi.sourceforge.net/DTD/sodipodi-0.dtd"
   xmlns:xlink="http://www.w3.org/1999/xlink"
   xmlns="http://www.w3.org/2000/svg"
   xmlns:svg="http://www.w3.org/2000/svg"><sodipodi:namedview
     id="namedview8489"
     pagecolor="#ffffff"
     bordercolor="#000000"
     borderopacity="0.25"
     inkscape:showpageshadow="2"
     inkscape:pageopacity="0.0"
     inkscape:pagecheckerboard="0"
     inkscape:deskcolor="#d1d1d1"
     inkscape:document-units="in"
     showgrid="false"
     inkscape:zoom="2.0902778"
     inkscape:cx="288"
     inkscape:cy="71.760797"
     inkscape:window-width="1920"
     inkscape:window-height="1046"
     inkscape:window-x="-11"
     inkscape:window-y="-11"
     inkscape:window-maximized="1"
     inkscape:current-layer="layer1"
     showguides="false" /><defs
     id="defs8484"><clipPath
       clipPathUnits="userSpaceOnUse"
       id="clipPath428"><path
         d="M 0,234 H 306 V 0 H 0 Z"
         id="path426" /></clipPath><rect
       x="32.009434"
       y="222.22643"
       width="146.43396"
       height="22.443396"
       id="rect778-9" /></defs><g
     inkscape:label="Layer 1"
     inkscape:groupmode="layer"
     id="layer1"><g
       id="g14069"
       transform="translate(3.048001,3.429)"><image
         preserveAspectRatio="none"
         inkscape:svg-dpi="300"
         width="18.542"
         height="18.542"
         xlink:href="truffle_0_0.svg"
         id="image12325"
         x="38.099998"
         y="6.3499999" /><image
         preserveAspectRatio="none"
         inkscape:svg-dpi="300"
         width="18.542"
         height="18.542"
         xlink:href="truffle_0_1.svg"
         id="image12483"
         x="59.689999"
         y="6.3499999" /><image
         preserveAspectRatio="none"
         inkscape:svg-dpi="300"
         width="18.542"
         height="18.542"
         xlink:href="truffle_0_2.svg"
         id="image12540"
         x="81.279999"
         y="6.3499999" /><image
         preserveAspectRatio="none"
         inkscape:svg-dpi="300"
         width="18.542"
         height="18.542"
         xlink:href="truffle_0_3.svg"
         id="image12540-1"
         x="102.87"
         y="6.3499999" /><image
         preserveAspectRatio="none"
         inkscape:svg-dpi="300"
         width="18.542"
         height="18.542"
         xlink:href="truffle_0_4.svg"
         id="image12540-1-8"
         x="124.46"
         y="6.3499999" /></g><g
       id="g14062"
       transform="matrix(1.0997438,0,0,1.0997437,-0.63337307,-0.88574454)"><g
         id="g12761"
         transform="matrix(0.01102431,0,0,-0.01102431,11.281826,23.233525)"><path
           d="m 0,0 c 39.641,40.297 96.641,108.297 71.641,226.297 -2.114,9.976 -34,-3 -49.418,-2.56 -28.675,0.818 -28.457,18.179 -28.54,19.228 -3.4,43.089 69.958,3.332 78.46,62.286 8.197,66.623 -43.008,168.485 0.52,242.045 15.978,27.001 33.597,41.237 57.435,46.35 34.149,5.429 48.319,-23.507 53.543,-31.349 33.449,-50.219 34,-200 -17,-157 -18.555,15.644 17.595,95.714 -1.371,133.154 -9.022,17.399 -28.629,32.846 -54.808,-16.315 -21.821,-49.839 15.47,-235.832 21.796,-237.725 0.383,-0.114 17.383,7.886 56.383,8.886 19.995,0 20.966,-40.429 -3,-42 -30.5,-2 -49.603,-1.432 -53.572,-11.386 -5.428,-13.614 -4.428,-18.614 -6.378,-40.361 C 112.866,56.453 82.641,13.297 20.117,-14.326 3.829,-21.522 -12.371,-12.576 0,0"
           style="fill:#000000;fill-opacity:1;fill-rule:nonzero;stroke:none"
           id="path12763" /></g><g
         id="g12765"
         transform="matrix(0.01102431,0,0,-0.01102431,8.8821691,21.210763)"><path
           d="M 0,0 C 8.355,28.489 18.256,58.175 21.695,89.403 -160.188,250.834 -206.283,-346.568 -16.632,-37.74 -9.406,-25.972 -3.886,-13.251 0,0 m 41.998,21.743 c -4.166,-13.634 -7.922,-27.4 -10.6,-41.403 -15.382,-80.432 -96.88,-177.424 -171.26,-153.958 -18.233,5.752 -67.05,35.054 -69.701,100.017 0,124.624 103.134,273.679 204.276,232.417 6.701,-0.324 20.636,-6.497 27.683,-10.218 2.062,-1.089 4.059,10.86 2.765,13.576 8.921,73.846 -5.39,117.935 -33.494,178.139 -0.776,1.664 -7.045,13.492 -14.451,22.313 -6.947,8.276 -26.243,24.291 -35.066,28.681 -9.169,4.56 -18.308,6.036 -19.158,6.271 -42.927,11.872 -111.901,-86.97 -126.521,-120.013 -28.356,-11.706 -28.893,39.175 -23.494,60.743 17.668,70.619 101.908,137.15 175.678,118.062 3,-0.777 12.242,-2.546 21.552,-6.143 8.723,-3.371 17.505,-8.508 21.268,-11.268 80.739,-59.2 81.179,-316.899 50.523,-417.216"
           style="fill:#000000;fill-opacity:1;fill-rule:nonzero;stroke:none"
           id="path12767" /></g><g
         id="g12769"
         transform="matrix(0.01102431,0,0,-0.01102431,14.249264,17.246259)"><path
           d="m 0,0 c 79.016,127.793 163.914,-8.619 132.181,-132.86 -5.074,-15.282 -29.268,-17.257 -33.873,-5.598 -1.839,4.658 -6.839,14.658 1.202,38.326 4.666,13.732 7.227,36.099 7.144,55.311 -0.059,13.569 -3.183,26.989 -9.483,39.005 C 89.835,8.176 82.344,12.927 73.703,10.166 53.837,3.819 36.217,-36.366 36.499,-69.845 c -2.451,-34.993 15.545,-120.39 17.93,-142.382 1.089,-9.253 2.554,-39.607 8.371,-42.103 12.239,-0.898 27.257,10.084 53.669,5.53 15.579,-4.935 5.034,-34.595 -2.52,-40.107 -12.861,-9.383 -45.914,-0.13 -49.832,-15.969 -7.648,-30.924 -3.588,-207.564 -100.883,-249.821 -39.765,-15.103 -41.809,-5.609 -29.012,9.547 60.247,71.35 84.919,131.626 70.247,219.35 -4.117,24.617 -25.378,1.615 -53.349,9.054 -13.446,6.39 -9.722,14.996 -7.53,28.416 0.586,3.586 2.335,6.932 5.136,9.245 7.941,6.558 21.798,7.21 31.31,8.279 53.433,6.006 20.688,99.804 9.422,180.267 C -18.941,-33.147 -3.803,-6.151 0,0"
           style="fill:#000000;fill-opacity:1;fill-rule:nonzero;stroke:none"
           id="path12771" /></g><g
         id="g12773"
         transform="matrix(0.01102431,0,0,-0.01102431,21.966544,19.702475)"><path
           d="M 0,0 C -24,22 -84,-86 -74.941,-137.995 -71,-150 -38,-142 -21.931,-122.415 1.783,-95.648 24,-20 0,0 M -19.334,-293.105 C 6,-299 22.98,-271.808 20.484,-248.572 c -0.386,3.602 -2.264,17.349 -1.68,19.883 8.76,38.011 55.33,-26.389 9.262,-74.852 C 21.047,-310.926 -2,-332 -55.204,-317.747 -77.285,-311.832 -89,-299 -102.02,-278.095 -148.77,-203.033 -133,-90 -94,-14 -58,52 -24,48 -6.886,44.389 57.96,23.406 34.443,-75.186 19.431,-122.895 7,-150 -7,-168 -45.959,-179.77 -58.526,-184.056 -68.834,-192.049 -66.323,-220.075 -64,-246 -60,-279 -19.334,-293.105"
           style="fill:#000000;fill-opacity:1;fill-rule:nonzero;stroke:none"
           id="path12775" /></g><g
         id="g12777"
         transform="matrix(0.01102431,0,0,-0.01102431,18.013094,19.243129)"><path
           d="m 0,0 c -3.357,7.34 -17.144,41.025 4.09,46.321 8.334,2.078 15.59,-0.208 21.697,-3.903 m 168.412,15.014 c 27.388,-32.684 35.904,-74.7 32.812,-112.51 -2.169,-26.518 -3.759,-33.234 -6.509,-57.987 -2.171,-19.532 -25.959,-23.422 -24.959,-13.021 3.62,37.624 1.762,72.586 -3.353,109.265 -3.144,22.543 -16.8,35.883 -27.774,35.296 -14.11,-0.754 -65.45,-7.834 -69.803,-121.227 2.651,-51.064 1.097,-101.464 -8.001,-157.589 -3.417,-21.074 -9.649,-61.457 -17.834,-87.405 -1.866,-3.662 -9.962,-27.923 -42.904,-40.266 -7.323,-2.743 -16.975,10.173 -16.729,19.727 0.502,19.548 12.776,62.065 15.05,70.219 17.371,62.295 19.429,162.213 2.771,221.848 C 19.748,-50.379 15.456,-23.141 0,0 c -3.357,7.34 -4.802,44.013 4.09,46.321 8.464,1.458 15.59,-0.208 21.697,-3.903 21.527,-13.025 30.394,-51.274 40.58,-66.866 16.322,58.963 43.45,77.41 64.974,86.918 34.904,15.45 57.691,1.343 62.858,-5.038"
           style="fill:#000000;fill-opacity:1;fill-rule:nonzero;stroke:none"
           id="path12779" /></g><g
         id="g12781"
         transform="matrix(0.01102431,0,0,-0.01102431,17.247714,20.25525)"><path
           d="M 0,0 C 9.039,29.142 9.039,47.142 3.766,56.988 -25.29,101.113 -114.656,-92.712 -68.71,-71.369 -38.961,-64.858 -5.961,-18.858 0,0 M -34.055,101.559 C 47.799,115.929 42.32,1.184 2.884,-58.304 c -14.168,-21.255 -38.183,-37.634 -61.479,-45.294 -9.366,-3.26 -20.366,-0.26 -22.012,-12.992 0.57,-3.02 -7.354,-85.268 65.443,-97.628 17.451,1.808 24.841,26.796 27.39,55.091 2.25,13.964 31.904,1.918 27.97,-10.997 10.431,-39.846 -25.29,-81.053 -69.048,-81.63 -67.948,-11.116 -113.109,128.896 -105.928,164.659 16.819,146.237 72.819,182.237 100.725,188.654"
           style="fill:#000000;fill-opacity:1;fill-rule:nonzero;stroke:none"
           id="path12783" /></g><g
         id="g12785"
         transform="matrix(0.01102431,0,0,-0.01102431,30.499014,20.877124)"><path
           d="M 0,0 C 3.578,13.25 14.074,55.236 14.816,67.966 15.525,80.145 12.532,109.945 -0.331,116.515 -128.432,175.188 -161.352,-289.323 -12.881,-26.74 -6.826,-16.032 -3.256,-12.058 0,0 m -2.007,-97.198 c -28.6,-41.326 -67.316,-69.686 -105.959,-56.446 -15.277,5.235 -56.178,31.899 -58.399,91.014 0,113.404 88.156,263.34 172.897,225.793 46.973,-22.78 37,-72.851 37,-92.317"
           style="fill:#000000;fill-opacity:1;fill-rule:nonzero;stroke:none"
           id="path12787" /></g><g
         id="g12789"
         transform="matrix(0.01102431,0,0,-0.01102431,30.978914,20.096093)"><path
           d="m 0,0 c -16.83,-143.867 3.853,-191.353 12.446,-204.685 7.38,-11.451 3.163,-32.061 -11.684,-32.432 -33.608,-0.839 -41.346,26.157 -44.755,59.893 l -1.434,9.725"
           style="fill:#000000;fill-opacity:1;fill-rule:nonzero;stroke:none"
           id="path12791" /></g><g
         id="g12793"
         transform="matrix(0.01102431,0,0,-0.01102431,26.816964,18.255098)"><path
           d="M 0,0 C -63.855,-105.361 -7.45,-321.404 6.386,-446.986 5.321,-458.693 -13.835,-478.914 -26.67,-462.253 -86.204,-360.782 -89.397,-63.855 -48.956,0 c -19.156,0 -9.578,-2.129 -30.815,0.801 -36.734,5.068 -40.009,41.19 16.91,43.576 33.062,1.386 32.508,25.745 40.512,48.213 26.606,68.112 64.919,77.69 61.726,52.148 C 35.12,113.875 24.748,99.704 20.221,75.562 4.257,31.928 54.371,58.493 74.885,47.002 82.322,42.836 85.868,33.681 80.98,14.378 77.691,6.385 55.655,4.354 48.615,5.274 35.12,5.321 18.092,2.128 0,0"
           style="fill:#000000;fill-opacity:1;fill-rule:nonzero;stroke:none"
           id="path12795" /></g><g
         id="g12797"
         transform="matrix(0.01102431,0,0,-0.01102431,32.122594,17.127863)"><path
           d="m 0,0 c 3.189,-7.471 5.858,-16.795 7.608,-19.566 11.47,-32.393 27.532,-141.75 29.618,-163.171 2.933,-31.113 -7.167,-156.829 -9.593,-170.035 -2.839,-15.456 -19.598,-114.1 -31.644,-149.48 -6.023,-17.154 -13.001,-51.942 -29.112,-67.544 -20.062,-19.513 -33.127,-8.577 -30.312,2.441 39.29,166.76 68.443,377.472 30.991,558.452 0.369,3.756 -0.679,19.127 11.159,22.356 C -9.03,17.729 -3.189,7.471 0,0"
           style="fill:#000000;fill-opacity:1;fill-rule:nonzero;stroke:none"
           id="path12799" /></g><g
         id="g12801"
         transform="matrix(0.01102431,0,0,-0.01102431,10.150586,22.78791)"><path
           d="m 0,0 c -16.435,12.345 -20.95,51.553 -20.355,70.64 -1.517,35.095 -0.779,77.549 12.153,116.755 14.012,30.439 22.786,61.357 38.68,90.828 15.323,28.903 47.652,67.071 38.948,-3.09 C 67.858,266.058 41.174,184.137 38.642,173.525 25.584,145.133 14.776,50.496 20.206,10.65 21.81,-1.124 14.81,-11.124 0,0"
           style="fill:#000000;fill-opacity:1;fill-rule:nonzero;stroke:none"
           id="path12803" /></g><g
         id="g12805"
         transform="matrix(0.01102431,0,0,-0.01102431,28.178194,19.680124)"><path
           d="m 0,0 c 4.55,-28.027 -21.069,-136.779 -13.45,-211.027 1.641,-16.671 15,-53 13.847,-67.985 -1.847,-21.015 -29.847,-5.015 -43.374,36.62 -17.834,59.194 -6.072,174.083 10.415,233.657 C -21.257,32.117 -7.73,46.959 0,0"
           style="fill:#000000;fill-opacity:1;fill-rule:nonzero;stroke:none"
           id="path12807" /></g><g
         id="g12809"
         transform="matrix(0.01102431,0,0,-0.01102431,11.037891,18.75434)"><path
           d="M 0,0 C -42.548,11.87 -41.058,96.219 19,85.492 43.441,78.083 40.941,47.36 34.561,28.944 30.768,17.996 10.768,-3.004 0,0"
           style="fill:#000000;fill-opacity:1;fill-rule:nonzero;stroke:none"
           id="path12811" /></g><g
         id="g12813"
         transform="matrix(0.01102431,0,0,-0.01102431,28.759824,18.503933)"><path
           d="m 0,0 c -2.403,-7.209 -10.813,-35.006 -27.096,-26.949 -21.1,2.522 -21.735,21.108 -20.626,36.936 1.264,18.048 -2.364,15.687 1.107,32.407 4.071,14.824 27.584,5.852 36.198,-3.296 C 1.765,28.596 3.374,15.022 0,0"
           style="fill:#000000;fill-opacity:1;fill-rule:nonzero;stroke:none"
           id="path12815" /></g><g
         id="g12817"
         transform="matrix(0.01102431,0,0,-0.01102431,22.895334,21.412495)"><path
           d="m 0,0 c 6.307,63.29 2.166,128.106 17.237,189.581 2.491,33.335 7.777,87.577 50.149,87.533 13.459,-2.551 6.95,-24.819 6.675,-37.617 4.564,-23.766 13.444,6.205 56.214,1.808 39.374,-6.703 60.65,-21.049 75.935,-50.476 8.872,-16.42 16.641,-38.349 20.799,-59.769 10.353,-37.435 0.363,-186.182 -31.977,-266.798 -3.826,-14.497 -11.112,-27.074 -26.65,-33.678 -29.802,-4.763 -20.921,11.401 -14.829,36.112 C 181.86,-18.491 182.97,51.443 166.558,112.753 153.501,161.53 120.64,216.454 68.806,158.305 32.003,111.386 37.634,-75.846 43.989,-118.81 c 2.639,-11.275 6.545,-23.51 7.995,-35.107 3.33,-26.641 -34.621,-26.783 -40.837,1.395 C 0.525,-104.756 -2.409,-52.902 0,0"
           style="fill:#000000;fill-opacity:1;fill-rule:nonzero;stroke:none"
           id="path12819" /></g><g
         id="g12821"
         transform="matrix(0.01102431,0,0,-0.01102431,11.568555,13.43036)"><path
           d="m 0,0 v 0.364 c 0,36.037 26.937,65.886 64.43,65.886 23.115,0 36.948,-8.19 49.688,-20.202 L 104.29,35.491 C 93.551,45.684 81.539,52.964 64.249,52.964 36.038,52.964 14.924,30.031 14.924,0.728 V 0.364 c 0,-29.485 21.295,-52.6 49.325,-52.6 17.472,0 28.939,6.735 41.133,18.383 l 9.464,-9.283 C 101.56,-56.604 87,-65.522 63.884,-65.522 27.119,-65.522 0,-36.583 0,0"
           style="fill:#000000;fill-opacity:1;fill-rule:nonzero;stroke:none"
           id="path12823" /></g><g
         id="g12825"
         transform="matrix(0.01102431,0,0,-0.01102431,13.520782,12.724073)"><path
           d="M 0,0 H 14.378 V -56.604 H 87.91 V 0 h 14.378 V -127.405 H 87.91 v 57.332 H 14.378 v -57.332 H 0 Z"
           style="fill:#000000;fill-opacity:1;fill-rule:nonzero;stroke:none"
           id="path12827" /></g><g
         id="g12829"
         transform="matrix(0.01102431,0,0,-0.01102431,16.652844,13.43036)"><path
           d="m 0,0 v 0.364 c 0,28.939 -21.113,52.6 -50.234,52.6 -29.121,0 -49.87,-23.297 -49.87,-52.236 V 0.364 c 0,-28.939 21.113,-52.6 50.234,-52.6 C -20.749,-52.236 0,-28.939 0,0 m -115.028,0 v 0.364 c 0,35.127 26.391,65.886 65.158,65.886 38.767,0 64.795,-30.395 64.795,-65.522 V 0.364 c 0,-35.127 -26.391,-65.886 -65.159,-65.886 -38.767,0 -64.794,30.395 -64.794,65.522"
           style="fill:#000000;fill-opacity:1;fill-rule:nonzero;stroke:none"
           id="path12831" /></g><g
         id="g12833"
         transform="matrix(0.01102431,0,0,-0.01102431,17.491464,13.43036)"><path
           d="m 0,0 v 0.364 c 0,36.037 26.937,65.886 64.431,65.886 23.114,0 36.947,-8.19 49.687,-20.202 L 104.29,35.491 C 93.552,45.684 81.539,52.964 64.249,52.964 36.037,52.964 14.925,30.031 14.925,0.728 V 0.364 c 0,-29.485 21.294,-52.6 49.324,-52.6 17.472,0 28.939,6.735 41.133,18.383 l 9.464,-9.283 C 101.56,-56.604 86.999,-65.522 63.884,-65.522 27.119,-65.522 0,-36.583 0,0"
           style="fill:#000000;fill-opacity:1;fill-rule:nonzero;stroke:none"
           id="path12835" /></g><g
         id="g12837"
         transform="matrix(0.01102431,0,0,-0.01102431,20.609494,13.43036)"><path
           d="m 0,0 v 0.364 c 0,28.939 -21.113,52.6 -50.234,52.6 -29.121,0 -49.87,-23.297 -49.87,-52.236 V 0.364 c 0,-28.939 21.113,-52.6 50.234,-52.6 C -20.749,-52.236 0,-28.939 0,0 m -115.028,0 v 0.364 c 0,35.127 26.391,65.886 65.158,65.886 38.767,0 64.795,-30.395 64.795,-65.522 V 0.364 c 0,-35.127 -26.391,-65.886 -65.159,-65.886 -38.767,0 -64.794,30.395 -64.794,65.522"
           style="fill:#000000;fill-opacity:1;fill-rule:nonzero;stroke:none"
           id="path12839" /></g><g
         id="g12841"
         transform="matrix(0.01102431,0,0,-0.01102431,21.510304,12.724073)"><path
           d="m 0,0 h 14.379 v -114.118 h 71.71 v -13.287 H 0 Z"
           style="fill:#000000;fill-opacity:1;fill-rule:nonzero;stroke:none"
           id="path12843" /></g><g
         id="g12845"
         transform="matrix(0.01102431,0,0,-0.01102431,24.056474,13.614959)"><path
           d="M 0,0 -28.939,64.977 -58.06,0 Z m -35.492,81.721 h 13.469 L 36.037,-46.594 H 20.567 L 5.642,-12.922 h -69.345 l -15.106,-33.672 h -14.743 z"
           style="fill:#000000;fill-opacity:1;fill-rule:nonzero;stroke:none"
           id="path12847" /></g><g
         id="g12849"
         transform="matrix(0.01102431,0,0,-0.01102431,25.324504,12.870549)"><path
           d="M 0,0 H -42.954 V 13.287 H 57.332 V 0 H 14.378 V -114.118 H 0 Z"
           style="fill:#000000;fill-opacity:1;fill-rule:nonzero;stroke:none"
           id="path12851" /></g><g
         id="g12853"
         transform="matrix(0.01102431,0,0,-0.01102431,26.646704,12.724073)"><path
           d="M 0,0 H 92.096 V -13.104 H 14.379 v -43.5 H 83.905 V -69.708 H 14.379 V -114.3 h 78.627 v -13.105 H 0 Z"
           style="fill:#000000;fill-opacity:1;fill-rule:nonzero;stroke:none"
           id="path12855" /></g><g
         id="g12857"
         transform="matrix(0.01102431,0,0,-0.01102431,19.166234,15.992559)"><path
           d="M 0,0 H -21.599 V -24.14 H 1.368 c 10.36,0 16.81,4.593 16.81,12.217 v 0.195 C 18.178,-4.3 11.923,0 0,0 m 14.367,19.253 c 0,6.744 -5.375,11.142 -15.149,11.142 H -21.599 V 6.841 h 20.231 c 9.285,0 15.735,4.202 15.735,12.217 z m -43.589,18.08 h 29.124 c 7.819,0 13.976,-2.247 17.886,-6.059 2.834,-2.932 4.398,-6.548 4.398,-10.946 v -0.195 c 0,-8.894 -5.474,-13.487 -10.849,-15.833 8.112,-2.443 14.66,-7.134 14.66,-16.517 v -0.195 c 0,-11.728 -9.871,-18.667 -24.824,-18.667 h -30.395 z"
           style="fill:#000000;fill-opacity:1;fill-rule:nonzero;stroke:none"
           id="path12859" /></g><g
         id="g12861"
         transform="matrix(0.01102431,0,0,-0.01102431,20.041144,16.036737)"><path
           d="m 0,0 -28.44,41.341 h 9.382 L 4.007,7.135 27.267,41.341 h 8.992 L 7.818,0.098 v -27.17 H 0 Z"
           style="fill:#000000;fill-opacity:1;fill-rule:nonzero;stroke:none"
           id="path12863" /></g></g><text
       xml:space="preserve"
       style="font-variant:normal;font-weight:normal;font-stretch:normal;font-size:3.87932px;font-family:'Streusel Kuchen';-inkscape-font-specification:StreuselKuchen-Regular;writing-mode:lr-tb;white-space:pre;inline-size:37.8431;fill:#20275b;fill-opacity:1;fill-rule:nonzero;stroke:none;stroke-width:0.352665"
       id="text186-7-8-9"
       x="51.690056"
       y="34.493996"
       transform="matrix(1.0502295,0,0,1.0497705,29.531516,-1.7879387)"><tspan
         x="51.690056"
         y="34.493996"
         id="tspan34199">Handmade in Alexandria, VA</tspan></text></g></svg>
