<?xml version="1.0" encoding="UTF-8" standalone="no"?>
<!-- Created with Inkscape (http://www.inkscape.org/) -->

<svg
   width="4in"
   height="3in"
   viewBox="0 0 101.6 76.2"
   version="1.1"
   id="svg850"
   sodipodi:docname="bars_unit.svg"
   inkscape:version="1.2.1 (9c6d41e410, 2022-07-14)"
   xmlns:inkscape="http://www.inkscape.org/namespaces/inkscape"
   xmlns:sodipodi="http://sodipodi.sourceforge.net/DTD/sodipodi-0.dtd"
   xmlns="http://www.w3.org/2000/svg"
   xmlns:svg="http://www.w3.org/2000/svg">
  <sodipodi:namedview
     id="namedview852"
     pagecolor="#ffffff"
     bordercolor="#000000"
     borderopacity="0.25"
     inkscape:showpageshadow="2"
     inkscape:pageopacity="0.0"
     inkscape:pagecheckerboard="0"
     inkscape:deskcolor="#d1d1d1"
     inkscape:document-units="in"
     showgrid="false"
     inkscape:zoom="2.36"
     inkscape:cx="195.33898"
     inkscape:cy="138.98305"
     inkscape:window-width="1920"
     inkscape:window-height="1046"
     inkscape:window-x="-11"
     inkscape:window-y="-11"
     inkscape:window-maximized="1"
     inkscape:current-layer="layer1" />
  <defs
     id="defs847">
    <clipPath
       clipPathUnits="userSpaceOnUse"
       id="clipPath428">
      <path
         d="M 0,234 H 306 V 0 H 0 Z"
         id="path426" />
    </clipPath>
  </defs>
  <g
     inkscape:label="Layer 1"
     inkscape:groupmode="layer"
     id="layer1">
    <g
       id="g186"
       transform="matrix(0.33347698,0,0,-0.31664255,30.824684,44.098219)">
      <path
         d="m 0,0 h -67.07 c -1.472,0 -2.666,1.193 -2.666,2.666 v 121.775 c 0,1.472 1.194,2.666 2.666,2.666 H 0 c 1.472,0 2.666,-1.194 2.666,-2.666 V 2.666 C 2.666,1.193 1.472,0 0,0"
         style="fill:#ffffff;fill-opacity:1;fill-rule:nonzero;stroke:none"
         id="path188" />
    </g>
    <g
       id="g190"
       transform="matrix(0.33347698,0,0,-0.31664255,30.824684,44.098219)">
      <path
         d="m 0,0 h -67.07 c -1.472,0 -2.666,1.193 -2.666,2.666 v 121.775 c 0,1.472 1.194,2.666 2.666,2.666 H 0 c 1.472,0 2.666,-1.194 2.666,-2.666 V 2.666 C 2.666,1.193 1.472,0 0,0 Z"
         style="fill:none;stroke:#231f20;stroke-width:0.25;stroke-linecap:butt;stroke-linejoin:miter;stroke-miterlimit:10;stroke-dasharray:none;stroke-opacity:1"
         id="path192" />
    </g>
    <g
       id="g194"
       transform="matrix(0.33347698,0,0,-0.31664255,29.699067,44.9624)">
      <path
         d="m 0,0 h -67.07 c -1.472,0 -2.666,1.193 -2.666,2.666 v 121.775 c 0,1.472 1.194,2.666 2.666,2.666 H 0 c 1.472,0 2.666,-1.194 2.666,-2.666 V 2.666 C 2.666,1.193 1.472,0 0,0"
         style="fill:#ffffff;fill-opacity:1;fill-rule:nonzero;stroke:none"
         id="path196" />
    </g>
    <g
       id="g198"
       transform="matrix(0.33347698,0,0,-0.31664255,29.699067,44.9624)">
      <path
         d="m 0,0 h -67.07 c -1.472,0 -2.666,1.193 -2.666,2.666 v 121.775 c 0,1.472 1.194,2.666 2.666,2.666 H 0 c 1.472,0 2.666,-1.194 2.666,-2.666 V 2.666 C 2.666,1.193 1.472,0 0,0 Z"
         style="fill:none;stroke:#231f20;stroke-width:0.25;stroke-linecap:butt;stroke-linejoin:miter;stroke-miterlimit:10;stroke-dasharray:none;stroke-opacity:1"
         id="path200" />
    </g>
    <g
       id="g202"
       transform="matrix(0.33347698,0,0,-0.31664255,28.440188,45.979266)">
      <path
         d="m 0,0 h -67.07 c -1.472,0 -2.666,1.193 -2.666,2.666 v 121.775 c 0,1.472 1.194,2.666 2.666,2.666 H 0 c 1.472,0 2.666,-1.194 2.666,-2.666 V 2.666 C 2.666,1.193 1.472,0 0,0"
         style="fill:#ffffff;fill-opacity:1;fill-rule:nonzero;stroke:none"
         id="path204" />
    </g>
    <g
       id="g206"
       transform="matrix(0.33347698,0,0,-0.31664255,28.440188,45.979266)">
      <path
         d="m 0,0 h -67.07 c -1.472,0 -2.666,1.193 -2.666,2.666 v 121.775 c 0,1.472 1.194,2.666 2.666,2.666 H 0 c 1.472,0 2.666,-1.194 2.666,-2.666 V 2.666 C 2.666,1.193 1.472,0 0,0 Z"
         style="fill:none;stroke:#231f20;stroke-width:0.25;stroke-linecap:butt;stroke-linejoin:miter;stroke-miterlimit:10;stroke-dasharray:none;stroke-opacity:1"
         id="path208" />
    </g>
    <g
       id="g210"
       transform="matrix(0.33347698,0,0,-0.31664255,27.105514,46.952751)">
      <path
         d="m 0,0 h -67.07 c -1.472,0 -2.666,1.193 -2.666,2.666 v 121.775 c 0,1.472 1.194,2.666 2.666,2.666 H 0 c 1.472,0 2.666,-1.194 2.666,-2.666 V 2.666 C 2.666,1.193 1.472,0 0,0"
         style="fill:#ffffff;fill-opacity:1;fill-rule:nonzero;stroke:none"
         id="path212" />
    </g>
    <g
       id="g214"
       transform="matrix(0.33347698,0,0,-0.31664255,27.105514,46.952751)">
      <path
         d="m 0,0 h -67.07 c -1.472,0 -2.666,1.193 -2.666,2.666 v 121.775 c 0,1.472 1.194,2.666 2.666,2.666 H 0 c 1.472,0 2.666,-1.194 2.666,-2.666 V 2.666 C 2.666,1.193 1.472,0 0,0 Z"
         style="fill:none;stroke:#231f20;stroke-width:0.25;stroke-linecap:butt;stroke-linejoin:miter;stroke-miterlimit:10;stroke-dasharray:none;stroke-opacity:1"
         id="path216" />
    </g>
    <text
       xml:space="preserve"
       transform="matrix(0.34093068,0,0,0.3427921,-0.94525055,75.73531)"
       style="font-variant:normal;font-weight:500;font-stretch:normal;font-size:5.3px;font-family:'Gotham Medium';-inkscape-font-specification:Gotham-Medium;text-align:start;writing-mode:lr-tb;text-anchor:start;white-space:pre;inline-size:61.4305;display:inline;fill:#000000;fill-opacity:1;fill-rule:nonzero;stroke:none"
       id="text280"
       x="19.669447"
       y="-181.2861"><tspan
         x="19.669447"
         y="-181.2861"
         id="tspan3261"><tspan
           style="letter-spacing:0.75px"
           id="tspan3259">WHITE LEMON &amp; 
</tspan></tspan><tspan
         x="19.669447"
         y="-174.66111"
         id="tspan3267"><tspan
           style="letter-spacing:0.75px"
           id="tspan3263">DARK CHOCOLATE</tspan><tspan
           dx="0.74999976"
           id="tspan3265">
</tspan></tspan><tspan
         x="19.669447"
         y="-168.03611"
         id="tspan3269">
</tspan><tspan
         x="19.669447"
         y="-161.41111"
         id="tspan3271">
</tspan><tspan
         x="19.669447"
         y="-154.78611"
         id="tspan3273">
</tspan><tspan
         x="19.669447"
         y="-148.16111"
         id="tspan3275">
</tspan><tspan
         x="19.669447"
         y="-141.53611"
         id="tspan3277">
</tspan><tspan
         x="19.669447"
         y="-134.91111"
         id="tspan3279">
</tspan><tspan
         x="19.669447"
         y="-128.28611"
         id="tspan3281">
</tspan><tspan
         x="19.669447"
         y="-121.66111"
         id="tspan3283">
</tspan><tspan
         x="19.669447"
         y="-115.03611"
         id="tspan3285">
</tspan><tspan
         x="19.669447"
         y="-108.41111"
         id="tspan3287">
</tspan></text>
    <text
       xml:space="preserve"
       transform="matrix(0.34093068,0,0,0.3427921,1.8490327,96.01114)"
       style="font-variant:normal;font-weight:500;font-stretch:normal;font-size:5.3px;font-family:'Gotham Medium';-inkscape-font-specification:Gotham-Medium;text-align:start;writing-mode:lr-tb;text-anchor:start;white-space:pre;inline-size:60.1152;display:inline;fill:#000000;fill-opacity:1;fill-rule:nonzero;stroke:none"
       id="text280-0"
       x="11.357846"
       y="-181.2861"><tspan
         x="11.357846"
         y="-181.2861"
         id="tspan3289">65% DARK -
</tspan><tspan
         x="11.357846"
         y="-174.66111"
         id="tspan3291">PIURA VALLEY
</tspan><tspan
         x="11.357846"
         y="-168.03611"
         id="tspan3293">
</tspan><tspan
         x="11.357846"
         y="-161.41111"
         id="tspan3295">
</tspan><tspan
         x="11.357846"
         y="-154.78611"
         id="tspan3297">
</tspan><tspan
         x="11.357846"
         y="-148.16111"
         id="tspan3299">
</tspan><tspan
         x="11.357846"
         y="-141.53611"
         id="tspan3301">
</tspan><tspan
         x="11.357846"
         y="-134.91111"
         id="tspan3303">
</tspan><tspan
         x="11.357846"
         y="-128.28611"
         id="tspan3305">
</tspan><tspan
         x="11.357846"
         y="-121.66111"
         id="tspan3307">
</tspan><tspan
         x="11.357846"
         y="-115.03611"
         id="tspan3309">
</tspan></text>
    <text
       xml:space="preserve"
       transform="matrix(0.34093068,0,0,0.3427921,-0.39656523,89.766784)"
       style="font-variant:normal;font-weight:500;font-stretch:normal;font-size:5.3px;font-family:'Gotham Medium';-inkscape-font-specification:Gotham-Medium;text-align:start;writing-mode:lr-tb;text-anchor:start;white-space:pre;inline-size:60.7728;display:inline;fill:#000000;fill-opacity:1;fill-rule:nonzero;stroke:none"
       id="text280-0-8"
       x="18.060482"
       y="-181.2861"><tspan
         x="18.060482"
         y="-181.2861"
         id="tspan3311">WHITE -
</tspan><tspan
         x="18.060482"
         y="-174.66111"
         id="tspan3313">BLUEBERRY
</tspan><tspan
         x="18.060482"
         y="-168.03611"
         id="tspan3315">
</tspan><tspan
         x="18.060482"
         y="-161.41111"
         id="tspan3317">
</tspan><tspan
         x="18.060482"
         y="-154.78611"
         id="tspan3319">
</tspan><tspan
         x="18.060482"
         y="-148.16111"
         id="tspan3321">
</tspan><tspan
         x="18.060482"
         y="-141.53611"
         id="tspan3323">
</tspan><tspan
         x="18.060482"
         y="-134.91111"
         id="tspan3325">
</tspan><tspan
         x="18.060482"
         y="-128.28611"
         id="tspan3327">
</tspan><tspan
         x="18.060482"
         y="-121.66111"
         id="tspan3329">
</tspan><tspan
         x="18.060482"
         y="-115.03611"
         id="tspan3331">
</tspan></text>
    <text
       xml:space="preserve"
       transform="matrix(0.34093068,0,0,0.3427921,1.5138453,81.175668)"
       style="font-variant:normal;font-weight:500;font-stretch:normal;font-size:5.3px;font-family:'Gotham Medium';-inkscape-font-specification:Gotham-Medium;text-align:start;writing-mode:lr-tb;text-anchor:start;white-space:pre;inline-size:61.4305;display:inline;fill:#000000;fill-opacity:1;fill-rule:nonzero;stroke:none"
       id="text280-0-8-9"
       x="12.4577"
       y="-181.2861"><tspan
         x="12.4577"
         y="-181.2861"
         id="tspan3333">65% DARK -
</tspan><tspan
         x="12.4577"
         y="-174.66111"
         id="tspan3335">WILD BOLIVIAN
</tspan><tspan
         x="12.4577"
         y="-168.03611"
         id="tspan3337">
</tspan><tspan
         x="12.4577"
         y="-161.41111"
         id="tspan3339">
</tspan><tspan
         x="12.4577"
         y="-154.78611"
         id="tspan3341">
</tspan><tspan
         x="12.4577"
         y="-148.16111"
         id="tspan3343">
</tspan><tspan
         x="12.4577"
         y="-141.53611"
         id="tspan3345">
</tspan><tspan
         x="12.4577"
         y="-134.91111"
         id="tspan3347">
</tspan><tspan
         x="12.4577"
         y="-128.28611"
         id="tspan3349">
</tspan><tspan
         x="12.4577"
         y="-121.66111"
         id="tspan3351">
</tspan><tspan
         x="12.4577"
         y="-115.03611"
         id="tspan3353">
</tspan></text>
    <text
       xml:space="preserve"
       transform="matrix(0.99728122,0,0,1.0027262,-0.11950799,0)"
       style="font-style:italic;font-variant:normal;font-weight:normal;font-stretch:normal;font-size:1.53837px;font-family:'Gotham Book';-inkscape-font-specification:Gotham-BookItalic;text-align:start;writing-mode:lr-tb;text-anchor:start;white-space:pre;inline-size:13.3757;display:inline;fill:#231f20;fill-opacity:1;fill-rule:nonzero;stroke:none;stroke-width:0.34186"
       id="text298"
       x="10.339255"
       y="10.194802"><tspan
         x="10.339255"
         y="10.194802"
         id="tspan3355">Top to bottom:</tspan></text>
    <text
       xml:space="preserve"
       transform="matrix(0.34093068,0,0,0.3427921,-7.5029056,90.447457)"
       style="font-style:italic;font-variant:normal;font-weight:500;font-stretch:normal;font-size:4px;line-height:0.95;font-family:'Gotham Medium';-inkscape-font-specification:Gotham-MediumItalic;writing-mode:lr-tb;white-space:pre;inline-size:61.1636;display:inline;fill:#231f20;fill-opacity:1;fill-rule:nonzero;stroke:none"
       id="text318"
       x="39.294899"
       y="-153.4429"><tspan
         x="39.294899"
         y="-153.4429"
         id="tspan3357">Tasting Notes: Banana, </tspan><tspan
         x="39.294899"
         y="-149.64289"
         id="tspan3359">Jasmine, Pepper</tspan></text>
    <text
       xml:space="preserve"
       transform="matrix(0.34093068,0,0,0.3427921,-7.6014559,75.742906)"
       style="font-style:italic;font-variant:normal;font-weight:500;font-stretch:normal;font-size:4px;line-height:0.95;font-family:'Gotham Medium';-inkscape-font-specification:Gotham-MediumItalic;writing-mode:lr-tb;white-space:pre;inline-size:61.4924;display:inline;fill:#231f20;fill-opacity:1;fill-rule:nonzero;stroke:none"
       id="text318-5"
       x="39.294899"
       y="-153.4429"><tspan
         x="39.294899"
         y="-153.4429"
         id="tspan3361">Tasting Notes: Papaya, </tspan><tspan
         x="39.294899"
         y="-149.64289"
         id="tspan3363">Buttercream, Cashew</tspan></text>
    <text
       xml:space="preserve"
       transform="matrix(0.34093068,0,0,0.3427921,-14.900469,83.893556)"
       style="font-variant:normal;font-weight:500;font-stretch:normal;font-size:5.3px;font-family:'Gotham Medium';-inkscape-font-specification:Gotham-Medium;text-align:start;letter-spacing:0.75px;writing-mode:lr-tb;text-anchor:start;white-space:pre;inline-size:60.5353;display:inline;fill:#000000;fill-opacity:1;fill-rule:nonzero;stroke:none"
       id="text406"
       x="60.774017"
       y="-120.66411"><tspan
         x="60.774017"
         y="-120.66411"
         id="tspan3365">WHITE -
</tspan><tspan
         x="60.774017"
         y="-114.03911"
         id="tspan3367">VANILLA BEAN</tspan></text>
    <text
       xml:space="preserve"
       transform="scale(0.99728122,1.0027262)"
       style="font-variant:normal;font-weight:500;font-stretch:normal;font-size:2.05116px;font-family:'Gotham Medium';-inkscape-font-specification:Gotham-Medium;letter-spacing:0.358953px;writing-mode:lr-tb;fill:#000000;fill-opacity:1;fill-rule:nonzero;stroke:none;stroke-width:0.34186"
       id="text326"
       x="23.778986"
       y="50.629742"><tspan
         x="23.778986"
         y="50.629742"
         sodipodi:role="line"
         id="tspan324"
         style="stroke-width:0.34186">DARK</tspan></text>
    <text
       xml:space="preserve"
       transform="matrix(0.99728122,0,0,1.0027262,6.1884508,-1.0583333)"
       style="font-style:italic;font-variant:normal;font-weight:normal;font-stretch:normal;font-size:1.53837px;line-height:0.95;font-family:'Gotham Book';-inkscape-font-specification:Gotham-BookItalic;text-align:start;writing-mode:lr-tb;text-anchor:start;white-space:pre;inline-size:11.8196;display:inline;fill:#231f20;fill-opacity:1;fill-rule:nonzero;stroke:none;stroke-width:0.34186"
       id="text334"
       x="17.782984"
       y="53.764427"><tspan
         x="17.782984"
         y="53.764427"
         id="tspan3369">Cocoa beans, </tspan><tspan
         x="17.782984"
         y="55.276481"
         id="tspan3371">cocoa butter, </tspan><tspan
         x="17.782984"
         y="56.788535"
         id="tspan3373">sugar</tspan></text>
    <text
       xml:space="preserve"
       transform="scale(0.99728122,1.0027262)"
       style="font-variant:normal;font-weight:500;font-stretch:normal;font-size:2.05116px;font-family:'Gotham Medium';-inkscape-font-specification:Gotham-Medium;letter-spacing:0.358953px;writing-mode:lr-tb;fill:#000000;fill-opacity:1;fill-rule:nonzero;stroke:none;stroke-width:0.34186"
       id="text338"
       x="23.887152"
       y="60.656933"><tspan
         x="23.887152"
         y="60.656933"
         sodipodi:role="line"
         id="tspan336"
         style="stroke-width:0.34186">WHITE</tspan></text>
    <text
       xml:space="preserve"
       transform="matrix(0.34093068,0,0,0.3427921,26.287533,62.8195)"
       style="font-style:italic;font-variant:normal;font-weight:normal;font-stretch:normal;font-size:4.5px;line-height:0.95;font-family:'Gotham Book';-inkscape-font-specification:Gotham-BookItalic;text-align:start;writing-mode:lr-tb;text-anchor:start;white-space:pre;inline-size:49.9691;display:inline;fill:#231f20;fill-opacity:1;fill-rule:nonzero;stroke:none"
       id="text350"
       x="-7.0154929"
       y="0"><tspan
         x="-7.0154929"
         y="0"
         id="tspan3375">Sugar, whole milk, </tspan><tspan
         x="-7.0154929"
         y="4.4230246"
         id="tspan3377">cocoa butter, </tspan><tspan
         x="-7.0154929"
         y="8.8460493"
         id="tspan3379">crystalized lemon/</tspan><tspan
         x="-7.0154929"
         y="13.269074"
         id="tspan3381">blueberry/ vanilla </tspan><tspan
         x="-7.0154929"
         y="17.6921"
         id="tspan3383">bean</tspan></text>
    <g
       id="g422"
       transform="matrix(0.34093068,0,0,-0.3427921,-1.7622127,79.604536)">
      <g
         id="g424"
         clip-path="url(#clipPath428)">
        <g
           id="g430"
           transform="translate(290.5605,209.1525)">
          <path
             d="m 0,0 c 0.365,0.021 0.709,-0.062 0.912,-0.311 0.027,-0.061 0.71,-0.691 0.052,-1.4 -0.271,-0.24 -1.057,-0.198 -1.167,0.948 -1.119,-0.773 -1.453,-1.553 -1.593,-2.294 -0.394,-2.48 0.233,-2.718 0.511,-2.911 0.734,-0.369 1.188,-0.053 1.413,0.128 0.21,0.16 0.727,0.917 0.965,0.811 C 1.227,-5.092 1.409,-5.222 1.405,-5.527 1.35,-6.27 0.342,-6.75 -0.145,-6.885 -0.848,-7.009 -1.895,-7.147 -2.547,-6.12 -3.07,-5.041 -3.105,-3.614 -2.766,-2.59 -2.014,-0.548 -0.67,-0.054 0,0"
             style="fill:#231f20;fill-opacity:1;fill-rule:nonzero;stroke:none"
             id="path432" />
        </g>
        <g
           id="g434"
           transform="translate(284.4704,212.0266)">
          <path
             d="M 0,0 C 0.165,0.563 0.361,1.149 0.429,1.767 -3.165,4.956 -4.076,-6.848 -0.329,-0.746 -0.186,-0.513 -0.077,-0.262 0,0 M 0.83,0.43 C 0.748,0.16 0.673,-0.112 0.62,-0.388 c -0.304,-1.59 -1.914,-3.506 -3.384,-3.043 -0.36,0.114 -1.324,0.693 -1.377,1.977 0,2.462 2.038,5.407 4.037,4.592 0.132,-0.006 0.407,-0.128 0.547,-0.202 0.04,-0.021 0.08,0.215 0.054,0.268 0.176,1.46 -0.106,2.331 -0.662,3.52 -0.015,0.033 -0.139,0.267 -0.285,0.441 -0.137,0.164 -0.519,0.48 -0.693,0.567 -0.181,0.09 -0.362,0.119 -0.379,0.124 -0.848,0.234 -2.211,-1.719 -2.5,-2.372 -0.56,-0.231 -0.57,0.774 -0.464,1.201 0.349,1.395 2.014,2.71 3.471,2.332 0.06,-0.015 0.242,-0.05 0.426,-0.121 C -0.416,8.829 -0.243,8.728 -0.168,8.673 1.427,7.504 1.436,2.412 0.83,0.43"
             style="fill:#231f20;fill-opacity:1;fill-rule:nonzero;stroke:none"
             id="path436" />
        </g>
        <g
           id="g438"
           transform="translate(282.8308,203.3222)">
          <path
             d="m 0,0 c -0.041,-0.021 -0.09,0.018 -0.08,0.059 0.053,0.206 0.077,0.348 0.137,0.477 0.322,0.687 0.756,1.309 1.138,1.971 0.423,0.733 0.795,1.507 1.259,2.222 0.347,0.537 0.656,1.094 1.028,1.617 0.661,0.928 1.426,1.842 2.121,2.75 0.32,0.417 0.592,0.819 0.966,1.199 0.017,0.017 0.048,0.043 0.088,0.068 C 7.056,10.617 7.2,10.502 6.969,10.12 6.359,9.114 5.757,8.105 5.128,7.108 4.678,6.396 4.227,5.704 3.76,5 3.414,4.48 3.041,3.954 2.696,3.434 2.128,2.577 1.492,1.791 0.897,0.949 0.691,0.657 0.277,0.14 0,0"
             style="fill:#231f20;fill-opacity:1;fill-rule:nonzero;stroke:none"
             id="path440" />
        </g>
      </g>
    </g>
    <text
       xml:space="preserve"
       transform="matrix(0.34093068,0,0,0.3427921,3.8041737,50.534279)"
       style="font-style:italic;font-variant:normal;font-weight:300;font-stretch:normal;font-size:5px;line-height:0;font-family:'Gotham Light';-inkscape-font-specification:Gotham-LightItalic;writing-mode:lr-tb;white-space:pre;inline-size:64.5501;display:inline;fill:#231f20;fill-opacity:1;fill-rule:nonzero;stroke:none"
       id="text308-8"><tspan
         x="0"
         y="0"
         id="tspan3387"><tspan
           style="line-height:1.25"
           id="tspan3385">Ingredients:
</tspan></tspan><tspan
         x="0"
         y="6.3749998"
         id="tspan3391"><tspan
           style="line-height:1.3"
           id="tspan3389">Net wt: 106g
</tspan></tspan><tspan
         x="0"
         y="12.875"
         id="tspan3395"><tspan
           style="line-height:1.3"
           id="tspan3393">Made: 12/22
</tspan></tspan><tspan
         x="0"
         y="19.375"
         id="tspan3399"><tspan
           style="line-height:1.3"
           id="tspan3397">Best By: 2/22</tspan></tspan></text>
    <text
       xml:space="preserve"
       transform="matrix(0.34093068,0,0,0.3427921,3.8359697,63.539006)"
       style="font-style:italic;font-variant:normal;font-weight:300;font-stretch:normal;font-size:4px;font-family:'Gotham Light';-inkscape-font-specification:Gotham-LightItalic;writing-mode:lr-tb;white-space:pre;inline-size:50.6438;display:inline;fill:#231f20;fill-opacity:1;fill-rule:nonzero;stroke:none"
       id="text450-9"><tspan
         x="0"
         y="0"
         id="tspan3401">
</tspan><tspan
         x="0"
         y="4.9999999"
         id="tspan3403">This product is </tspan><tspan
         x="0"
         y="9.9999997"
         id="tspan3405">homemade and not for </tspan><tspan
         x="0"
         y="15"
         id="tspan3407">resale –  processed and </tspan><tspan
         x="0"
         y="19.999999"
         id="tspan3409">prepared 
</tspan><tspan
         x="0"
         y="24.999999"
         id="tspan3411">without state inspection.</tspan></text>
    <text
       xml:space="preserve"
       transform="matrix(0.34093068,0,0,0.3427921,3.7727107,57.688657)"
       style="font-style:italic;font-variant:normal;font-weight:300;font-stretch:normal;font-size:4px;font-family:'Gotham Light';-inkscape-font-specification:Gotham-LightItalic;writing-mode:lr-tb;white-space:pre;inline-size:42.8624;display:inline;fill:#231f20;fill-opacity:1;fill-rule:nonzero;stroke:none"
       id="text450-5-6"><tspan
         x="0"
         y="0"
         id="tspan3413">
</tspan><tspan
         x="0"
         y="4.9999999"
         id="tspan3415">Made in a kitchen </tspan><tspan
         x="0"
         y="9.9999997"
         id="tspan3417">that also processes </tspan><tspan
         x="0"
         y="15"
         id="tspan3419">hazelnuts.</tspan></text>
  </g>
</svg>
