<?xml version="1.0" encoding="UTF-8" standalone="no"?>
<!-- Created with Inkscape (http://www.inkscape.org/) -->

<svg
   width="4in"
   height="3in"
   viewBox="0 0 101.6 76.2"
   version="1.1"
   id="svg850"
   sodipodi:docname="unit_onlyTruffles.svg"
   inkscape:version="1.2.1 (9c6d41e410, 2022-07-14)"
   xmlns:inkscape="http://www.inkscape.org/namespaces/inkscape"
   xmlns:sodipodi="http://sodipodi.sourceforge.net/DTD/sodipodi-0.dtd"
   xmlns="http://www.w3.org/2000/svg"
   xmlns:svg="http://www.w3.org/2000/svg">
  <sodipodi:namedview
     id="namedview852"
     pagecolor="#ffffff"
     bordercolor="#000000"
     borderopacity="0.25"
     inkscape:showpageshadow="2"
     inkscape:pageopacity="0.0"
     inkscape:pagecheckerboard="0"
     inkscape:deskcolor="#d1d1d1"
     inkscape:document-units="in"
     showgrid="false"
     inkscape:zoom="2.36"
     inkscape:cx="151.27119"
     inkscape:cy="132.62712"
     inkscape:window-width="1920"
     inkscape:window-height="1046"
     inkscape:window-x="-11"
     inkscape:window-y="-11"
     inkscape:window-maximized="1"
     inkscape:current-layer="layer1" />
  <defs
     id="defs847">
    <clipPath
       clipPathUnits="userSpaceOnUse"
       id="clipPath428">
      <path
         d="M 0,234 H 306 V 0 H 0 Z"
         id="path426" />
    </clipPath>
  </defs>
  <g
     inkscape:label="Layer 1"
     inkscape:groupmode="layer"
     id="layer1">
    <text
       xml:space="preserve"
       transform="matrix(0.34093068,0,0,0.3427921,3.8041735,48.068048)"
       style="font-style:italic;font-variant:normal;font-weight:300;font-stretch:normal;font-size:5px;line-height:0;font-family:'Gotham Light';-inkscape-font-specification:Gotham-LightItalic;writing-mode:lr-tb;white-space:pre;inline-size:64.5501;display:inline;fill:#231f20;fill-opacity:1;fill-rule:nonzero;stroke:none"
       id="text308"><tspan
         x="0"
         y="0"
         id="tspan11957"><tspan
           style="line-height:1.25"
           id="tspan11955">Ingredients:
</tspan></tspan><tspan
         x="0"
         y="6.3749998"
         id="tspan11961"><tspan
           style="line-height:1.3"
           id="tspan11959">Net wt: 106g
</tspan></tspan><tspan
         x="0"
         y="12.875"
         id="tspan11965"><tspan
           style="line-height:1.3"
           id="tspan11963">Made: 12/22
</tspan></tspan><tspan
         x="0"
         y="19.375"
         id="tspan11969"><tspan
           style="line-height:1.3"
           id="tspan11967">Best By: 2/22</tspan></tspan></text>
    <text
       xml:space="preserve"
       transform="scale(0.99728122,1.0027262)"
       style="font-variant:normal;font-weight:500;font-stretch:normal;font-size:2.05116px;font-family:'Gotham Medium';-inkscape-font-specification:Gotham-Medium;letter-spacing:0.358953px;writing-mode:lr-tb;fill:#000000;fill-opacity:1;fill-rule:nonzero;stroke:none;stroke-width:0.34186"
       id="text326"
       x="19.962843"
       y="48.518826"><tspan
         x="19.962843"
         y="48.518826"
         sodipodi:role="line"
         id="tspan324"
         style="stroke-width:0.34186">DARK</tspan></text>
    <text
       xml:space="preserve"
       transform="matrix(0.99728122,0,0,1.0027262,2.6043889,-0.52916663)"
       style="font-style:italic;font-variant:normal;font-weight:normal;font-stretch:normal;font-size:1.53837px;line-height:0.95;font-family:'Gotham Book';-inkscape-font-specification:Gotham-BookItalic;text-align:start;writing-mode:lr-tb;text-anchor:start;white-space:pre;inline-size:14.0429;display:inline;fill:#231f20;fill-opacity:1;fill-rule:nonzero;stroke:none;stroke-width:0.34186"
       id="text334"
       x="17.533968"
       y="51.125782"><tspan
         x="17.533968"
         y="51.125782"
         id="tspan11971">Cocoa beans, </tspan><tspan
         x="17.533968"
         y="52.637836"
         id="tspan11973">cocoa butter, </tspan><tspan
         x="17.533968"
         y="54.14989"
         id="tspan11975">sugar</tspan></text>
    <text
       xml:space="preserve"
       transform="scale(0.99728122,1.0027262)"
       style="font-variant:normal;font-weight:500;font-stretch:normal;font-size:2.05116px;font-family:'Gotham Medium';-inkscape-font-specification:Gotham-Medium;letter-spacing:0.358953px;writing-mode:lr-tb;fill:#000000;fill-opacity:1;fill-rule:nonzero;stroke:none;stroke-width:0.34186"
       id="text338"
       x="20.071011"
       y="58.546013"><tspan
         x="20.071011"
         y="58.546013"
         sodipodi:role="line"
         id="tspan336"
         style="stroke-width:0.34186">WHITE</tspan></text>
    <text
       xml:space="preserve"
       transform="matrix(0.34093068,0,0,0.3427921,20.138964,60.790174)"
       style="font-style:italic;font-variant:normal;font-weight:normal;font-stretch:normal;font-size:4.5px;line-height:0.95;font-family:'Gotham Book';-inkscape-font-specification:Gotham-BookItalic;text-align:start;writing-mode:lr-tb;text-anchor:start;white-space:pre;inline-size:35.4171;display:inline;fill:#231f20;fill-opacity:1;fill-rule:nonzero;stroke:none"
       id="text350"
       x="0.4725"
       y="0"><tspan
         x="0.4725"
         y="0"
         id="tspan11977">Sugar, whole </tspan><tspan
         x="0.4725"
         y="4.4230246"
         id="tspan11979">milk, cocoa </tspan><tspan
         x="0.4725"
         y="8.8460493"
         id="tspan11981">butter</tspan></text>
    <text
       xml:space="preserve"
       transform="matrix(0.34093068,0,0,0.3427921,3.8359693,60.110006)"
       style="font-style:italic;font-variant:normal;font-weight:300;font-stretch:normal;font-size:4px;font-family:'Gotham Light';-inkscape-font-specification:Gotham-LightItalic;writing-mode:lr-tb;white-space:pre;inline-size:37.0816;display:inline;fill:#231f20;fill-opacity:1;fill-rule:nonzero;stroke:none"
       id="text450"><tspan
         x="0"
         y="0"
         id="tspan11983">
</tspan><tspan
         x="0"
         y="4.9999999"
         id="tspan11985">This product is </tspan><tspan
         x="0"
         y="9.9999997"
         id="tspan11987">homemade and </tspan><tspan
         x="0"
         y="15"
         id="tspan11989">not for resale –  </tspan><tspan
         x="0"
         y="19.999999"
         id="tspan11991">processed and </tspan><tspan
         x="0"
         y="24.999999"
         id="tspan11993">prepared 
</tspan><tspan
         x="0"
         y="29.999999"
         id="tspan11995">without state </tspan><tspan
         x="0"
         y="34.999999"
         id="tspan11997">inspection.</tspan></text>
    <text
       xml:space="preserve"
       transform="matrix(0.34093068,0,0,0.3427921,3.7727107,54.693259)"
       style="font-style:italic;font-variant:normal;font-weight:300;font-stretch:normal;font-size:4px;font-family:'Gotham Light';-inkscape-font-specification:Gotham-LightItalic;writing-mode:lr-tb;white-space:pre;inline-size:42.8624;display:inline;fill:#231f20;fill-opacity:1;fill-rule:nonzero;stroke:none"
       id="text450-5"><tspan
         x="0"
         y="0"
         id="tspan11999">
</tspan><tspan
         x="0"
         y="4.9999999"
         id="tspan12001">Made in a kitchen </tspan><tspan
         x="0"
         y="9.9999997"
         id="tspan12003">that also processes </tspan><tspan
         x="0"
         y="15"
         id="tspan12005">hazelnuts.</tspan></text>
    <g
       id="g422"
       transform="matrix(0.34093068,0,0,-0.3427921,-1.7622127,79.604536)">
      <g
         id="g424"
         clip-path="url(#clipPath428)">
        <g
           id="g430"
           transform="translate(290.5605,209.1525)">
          <path
             d="m 0,0 c 0.365,0.021 0.709,-0.062 0.912,-0.311 0.027,-0.061 0.71,-0.691 0.052,-1.4 -0.271,-0.24 -1.057,-0.198 -1.167,0.948 -1.119,-0.773 -1.453,-1.553 -1.593,-2.294 -0.394,-2.48 0.233,-2.718 0.511,-2.911 0.734,-0.369 1.188,-0.053 1.413,0.128 0.21,0.16 0.727,0.917 0.965,0.811 C 1.227,-5.092 1.409,-5.222 1.405,-5.527 1.35,-6.27 0.342,-6.75 -0.145,-6.885 -0.848,-7.009 -1.895,-7.147 -2.547,-6.12 -3.07,-5.041 -3.105,-3.614 -2.766,-2.59 -2.014,-0.548 -0.67,-0.054 0,0"
             style="fill:#231f20;fill-opacity:1;fill-rule:nonzero;stroke:none"
             id="path432" />
        </g>
        <g
           id="g434"
           transform="translate(284.4704,212.0266)">
          <path
             d="M 0,0 C 0.165,0.563 0.361,1.149 0.429,1.767 -3.165,4.956 -4.076,-6.848 -0.329,-0.746 -0.186,-0.513 -0.077,-0.262 0,0 M 0.83,0.43 C 0.748,0.16 0.673,-0.112 0.62,-0.388 c -0.304,-1.59 -1.914,-3.506 -3.384,-3.043 -0.36,0.114 -1.324,0.693 -1.377,1.977 0,2.462 2.038,5.407 4.037,4.592 0.132,-0.006 0.407,-0.128 0.547,-0.202 0.04,-0.021 0.08,0.215 0.054,0.268 0.176,1.46 -0.106,2.331 -0.662,3.52 -0.015,0.033 -0.139,0.267 -0.285,0.441 -0.137,0.164 -0.519,0.48 -0.693,0.567 -0.181,0.09 -0.362,0.119 -0.379,0.124 -0.848,0.234 -2.211,-1.719 -2.5,-2.372 -0.56,-0.231 -0.57,0.774 -0.464,1.201 0.349,1.395 2.014,2.71 3.471,2.332 0.06,-0.015 0.242,-0.05 0.426,-0.121 C -0.416,8.829 -0.243,8.728 -0.168,8.673 1.427,7.504 1.436,2.412 0.83,0.43"
             style="fill:#231f20;fill-opacity:1;fill-rule:nonzero;stroke:none"
             id="path436" />
        </g>
        <g
           id="g438"
           transform="translate(282.8308,203.3222)">
          <path
             d="m 0,0 c -0.041,-0.021 -0.09,0.018 -0.08,0.059 0.053,0.206 0.077,0.348 0.137,0.477 0.322,0.687 0.756,1.309 1.138,1.971 0.423,0.733 0.795,1.507 1.259,2.222 0.347,0.537 0.656,1.094 1.028,1.617 0.661,0.928 1.426,1.842 2.121,2.75 0.32,0.417 0.592,0.819 0.966,1.199 0.017,0.017 0.048,0.043 0.088,0.068 C 7.056,10.617 7.2,10.502 6.969,10.12 6.359,9.114 5.757,8.105 5.128,7.108 4.678,6.396 4.227,5.704 3.76,5 3.414,4.48 3.041,3.954 2.696,3.434 2.128,2.577 1.492,1.791 0.897,0.949 0.691,0.657 0.277,0.14 0,0"
             style="fill:#231f20;fill-opacity:1;fill-rule:nonzero;stroke:none"
             id="path440" />
        </g>
      </g>
    </g>
  </g>
</svg>
