<?xml version="1.0" encoding="UTF-8" standalone="no"?>
<!-- Created with Inkscape (http://www.inkscape.org/) -->

<svg
   width="4in"
   height="6in"
   viewBox="0 0 101.6 152.4"
   version="1.1"
   id="svg2250"
   xml:space="preserve"
   inkscape:version="1.2.1 (9c6d41e410, 2022-07-14)"
   sodipodi:docname="InsertFront_print_printingmarks.svg"
   inkscape:export-filename="Back_4x6.pdf"
   inkscape:export-xdpi="96"
   inkscape:export-ydpi="96"
   xmlns:inkscape="http://www.inkscape.org/namespaces/inkscape"
   xmlns:sodipodi="http://sodipodi.sourceforge.net/DTD/sodipodi-0.dtd"
   xmlns:xlink="http://www.w3.org/1999/xlink"
   xmlns="http://www.w3.org/2000/svg"
   xmlns:svg="http://www.w3.org/2000/svg"><sodipodi:namedview
     id="namedview2252"
     pagecolor="#ffffff"
     bordercolor="#000000"
     borderopacity="0.25"
     inkscape:showpageshadow="2"
     inkscape:pageopacity="0.0"
     inkscape:pagecheckerboard="0"
     inkscape:deskcolor="#d1d1d1"
     inkscape:document-units="in"
     showgrid="false"
     inkscape:zoom="1.23"
     inkscape:cx="-13.414634"
     inkscape:cy="317.88618"
     inkscape:window-width="1920"
     inkscape:window-height="1046"
     inkscape:window-x="-11"
     inkscape:window-y="-11"
     inkscape:window-maximized="1"
     inkscape:current-layer="layer1" /><defs
     id="defs2247"><clipPath
       clipPathUnits="userSpaceOnUse"
       id="clipPath442-5-0-4"><path
         d="M 0,306 H 153 V 0 H 0 Z"
         id="path440-2-5-3" /></clipPath><clipPath
       clipPathUnits="userSpaceOnUse"
       id="clipPath442-5-0-4-7"><path
         d="M 0,306 H 153 V 0 H 0 Z"
         id="path440-2-5-3-5" /></clipPath><clipPath
       clipPathUnits="userSpaceOnUse"
       id="clipPath442-5-0-4-7-7"><path
         d="M 0,306 H 153 V 0 H 0 Z"
         id="path440-2-5-3-5-6" /></clipPath><clipPath
       clipPathUnits="userSpaceOnUse"
       id="clipPath442-5-0-4-7-7-5"><path
         d="M 0,306 H 153 V 0 H 0 Z"
         id="path440-2-5-3-5-6-0" /></clipPath><clipPath
       clipPathUnits="userSpaceOnUse"
       id="clipPath442-5-0-4-7-7-5-7"><path
         d="M 0,306 H 153 V 0 H 0 Z"
         id="path440-2-5-3-5-6-0-0" /></clipPath><clipPath
       clipPathUnits="userSpaceOnUse"
       id="clipPath442-5-0-4-7-7-5-7-5"><path
         d="M 0,306 H 153 V 0 H 0 Z"
         id="path440-2-5-3-5-6-0-0-7" /></clipPath><clipPath
       clipPathUnits="userSpaceOnUse"
       id="clipPath442-5-0-4-7-9"><path
         d="M 0,306 H 153 V 0 H 0 Z"
         id="path440-2-5-3-5-3" /></clipPath><clipPath
       clipPathUnits="userSpaceOnUse"
       id="clipPath442-5-0-4-7-9-5"><path
         d="M 0,306 H 153 V 0 H 0 Z"
         id="path440-2-5-3-5-3-3" /></clipPath><clipPath
       clipPathUnits="userSpaceOnUse"
       id="clipPath442-5-0-4-7-9-5-3"><path
         d="M 0,306 H 153 V 0 H 0 Z"
         id="path440-2-5-3-5-3-3-3" /></clipPath><clipPath
       clipPathUnits="userSpaceOnUse"
       id="clipPath442-5-0-4-7-75"><path
         d="M 0,306 H 153 V 0 H 0 Z"
         id="path440-2-5-3-5-7" /></clipPath><clipPath
       clipPathUnits="userSpaceOnUse"
       id="clipPath442-5-0-4-7-75-8"><path
         d="M 0,306 H 153 V 0 H 0 Z"
         id="path440-2-5-3-5-7-5" /></clipPath><clipPath
       clipPathUnits="userSpaceOnUse"
       id="clipPath442-5-0-4-7-75-8-3"><path
         d="M 0,306 H 153 V 0 H 0 Z"
         id="path440-2-5-3-5-7-5-4" /></clipPath><clipPath
       clipPathUnits="userSpaceOnUse"
       id="clipPath442-5-0-4-7-9-0"><path
         d="M 0,306 H 153 V 0 H 0 Z"
         id="path440-2-5-3-5-3-2" /></clipPath><clipPath
       clipPathUnits="userSpaceOnUse"
       id="clipPath442-5-0-4-7-9-0-0"><path
         d="M 0,306 H 153 V 0 H 0 Z"
         id="path440-2-5-3-5-3-2-9" /></clipPath><clipPath
       clipPathUnits="userSpaceOnUse"
       id="clipPath442-5-0-4-7-9-0-0-6"><path
         d="M 0,306 H 153 V 0 H 0 Z"
         id="path440-2-5-3-5-3-2-9-3" /></clipPath><clipPath
       clipPathUnits="userSpaceOnUse"
       id="clipPath442-5-0-4-7-9-0-0-6-6"><path
         d="M 0,306 H 153 V 0 H 0 Z"
         id="path440-2-5-3-5-3-2-9-3-1" /></clipPath><clipPath
       clipPathUnits="userSpaceOnUse"
       id="clipPath442-5-0-4-7-9-0-0-6-6-1"><path
         d="M 0,306 H 153 V 0 H 0 Z"
         id="path440-2-5-3-5-3-2-9-3-1-8" /></clipPath><clipPath
       clipPathUnits="userSpaceOnUse"
       id="clipPath442-5-0-4-7-9-0-0-6-6-1-4"><path
         d="M 0,306 H 153 V 0 H 0 Z"
         id="path440-2-5-3-5-3-2-9-3-1-8-9" /></clipPath></defs><g
     inkscape:label="Layer 1"
     inkscape:groupmode="layer"
     id="layer1"><g
       id="g436-5-7-2-7-3"
       transform="matrix(0.12237425,0,0,-0.4289275,90.075588,150.84227)"
       style="fill:#000000"><g
         id="g438-1-8-7-6-6"
         clip-path="url(#clipPath442-5-0-4-7-75)"
         style="fill:#000000"><g
           id="g444-1-7-0-9-5"
           transform="translate(60.7857,232.9918)"
           style="fill:#000000"><path
             d="M 0,0 H 31.134"
             style="fill:#000000;fill-opacity:1;fill-rule:nonzero;stroke:none"
             id="path446-5-4-9-6-1" /></g><g
           id="g448-4-2-3-6-3"
           transform="translate(60.7857,232.9918)"
           style="fill:#000000"><path
             d="M 0,0 C 10.041,0.327 21.093,0.33 31.134,0 21.093,-0.33 10.041,-0.327 0,0"
             style="fill:#000000;fill-opacity:1;fill-rule:nonzero;stroke:none"
             id="path450-4-2-4-3-2" /></g></g></g><g
       id="g436-5-7-2-7-3-7"
       transform="matrix(0.12237425,0,0,-0.4289275,-7.4386044,106.39227)"
       style="fill:#000000"><g
         id="g438-1-8-7-6-6-5"
         clip-path="url(#clipPath442-5-0-4-7-75-8)"
         style="fill:#000000"><g
           id="g444-1-7-0-9-5-4"
           transform="translate(60.7857,232.9918)"
           style="fill:#000000"><path
             d="M 0,0 H 31.134"
             style="fill:#000000;fill-opacity:1;fill-rule:nonzero;stroke:none"
             id="path446-5-4-9-6-1-4" /></g><g
           id="g448-4-2-3-6-3-7"
           transform="translate(60.7857,232.9918)"
           style="fill:#000000"><path
             d="M 0,0 C 10.041,0.327 21.093,0.33 31.134,0 21.093,-0.33 10.041,-0.327 0,0"
             style="fill:#000000;fill-opacity:1;fill-rule:nonzero;stroke:none"
             id="path450-4-2-4-3-2-5" /></g></g></g><g
       id="g436-5-7-2-7-3-7-3"
       transform="matrix(0.12237425,0,0,-0.4289275,90.351396,106.39227)"
       style="fill:#000000"><g
         id="g438-1-8-7-6-6-5-1"
         clip-path="url(#clipPath442-5-0-4-7-75-8-3)"
         style="fill:#000000"><g
           id="g444-1-7-0-9-5-4-5"
           transform="translate(60.7857,232.9918)"
           style="fill:#000000"><path
             d="M 0,0 H 31.134"
             style="fill:#000000;fill-opacity:1;fill-rule:nonzero;stroke:none"
             id="path446-5-4-9-6-1-4-6" /></g><g
           id="g448-4-2-3-6-3-7-2"
           transform="translate(60.7857,232.9918)"
           style="fill:#000000"><path
             d="M 0,0 C 10.041,0.327 21.093,0.33 31.134,0 21.093,-0.33 10.041,-0.327 0,0"
             style="fill:#000000;fill-opacity:1;fill-rule:nonzero;stroke:none"
             id="path450-4-2-4-3-2-5-1" /></g></g></g><g
       id="g436-5-7-2-7-4"
       transform="matrix(0.12237425,0,0,-0.4289275,90.351396,195.29227)"
       style="fill:#000000"><g
         id="g438-1-8-7-6-1"
         clip-path="url(#clipPath442-5-0-4-7-9)"
         style="fill:#000000"><g
           id="g444-1-7-0-9-6"
           transform="translate(60.7857,232.9918)"
           style="fill:#000000"><path
             d="M 0,0 H 31.134"
             style="fill:#000000;fill-opacity:1;fill-rule:nonzero;stroke:none"
             id="path446-5-4-9-6-5" /></g><g
           id="g448-4-2-3-6-2"
           transform="translate(60.7857,232.9918)"
           style="fill:#000000"><path
             d="M 0,0 C 10.041,0.327 21.093,0.33 31.134,0 21.093,-0.33 10.041,-0.327 0,0"
             style="fill:#000000;fill-opacity:1;fill-rule:nonzero;stroke:none"
             id="path450-4-2-4-3-8" /></g></g></g><g
       id="g436-5-7-2-7-4-2"
       transform="matrix(0.12237425,0,0,-0.4289275,90.351396,239.74227)"
       style="fill:#000000"><g
         id="g438-1-8-7-6-1-5"
         clip-path="url(#clipPath442-5-0-4-7-9-0)"
         style="fill:#000000"><g
           id="g444-1-7-0-9-6-1"
           transform="translate(60.7857,232.9918)"
           style="fill:#000000"><path
             d="M 0,0 H 31.134"
             style="fill:#000000;fill-opacity:1;fill-rule:nonzero;stroke:none"
             id="path446-5-4-9-6-5-9" /></g><g
           id="g448-4-2-3-6-2-7"
           transform="translate(60.7857,232.9918)"
           style="fill:#000000"><path
             d="M 0,0 C 10.041,0.327 21.093,0.33 31.134,0 21.093,-0.33 10.041,-0.327 0,0"
             style="fill:#000000;fill-opacity:1;fill-rule:nonzero;stroke:none"
             id="path450-4-2-4-3-8-3" /></g></g></g><g
       id="g436-5-7-2-7-4-2-5"
       transform="matrix(0.12237425,0,0,-0.4289275,-7.4386044,239.74227)"
       style="fill:#000000"><g
         id="g438-1-8-7-6-1-5-9"
         clip-path="url(#clipPath442-5-0-4-7-9-0-0)"
         style="fill:#000000"><g
           id="g444-1-7-0-9-6-1-9"
           transform="translate(60.7857,232.9918)"
           style="fill:#000000"><path
             d="M 0,0 H 31.134"
             style="fill:#000000;fill-opacity:1;fill-rule:nonzero;stroke:none"
             id="path446-5-4-9-6-5-9-0" /></g><g
           id="g448-4-2-3-6-2-7-8"
           transform="translate(60.7857,232.9918)"
           style="fill:#000000"><path
             d="M 0,0 C 10.041,0.327 21.093,0.33 31.134,0 21.093,-0.33 10.041,-0.327 0,0"
             style="fill:#000000;fill-opacity:1;fill-rule:nonzero;stroke:none"
             id="path450-4-2-4-3-8-3-5" /></g></g></g><g
       id="g436-5-7-2-7-4-2-5-3"
       transform="matrix(0,-0.12237425,-0.4289275,0,106.39227,156.0286)"
       style="fill:#000000"><g
         id="g438-1-8-7-6-1-5-9-4"
         clip-path="url(#clipPath442-5-0-4-7-9-0-0-6)"
         style="fill:#000000"><g
           id="g444-1-7-0-9-6-1-9-5"
           transform="translate(60.7857,232.9918)"
           style="fill:#000000"><path
             d="M 0,0 H 31.134"
             style="fill:#000000;fill-opacity:1;fill-rule:nonzero;stroke:none"
             id="path446-5-4-9-6-5-9-0-6" /></g><g
           id="g448-4-2-3-6-2-7-8-4"
           transform="translate(60.7857,232.9918)"
           style="fill:#000000"><path
             d="M 0,0 C 10.041,0.327 21.093,0.33 31.134,0 21.093,-0.33 10.041,-0.327 0,0"
             style="fill:#000000;fill-opacity:1;fill-rule:nonzero;stroke:none"
             id="path450-4-2-4-3-8-3-5-6" /></g></g></g><g
       id="g436-5-7-2-7-4-2-5-3-4"
       transform="matrix(0,-0.12237425,-0.4289275,0,195.29227,156.0286)"
       style="fill:#000000"><g
         id="g438-1-8-7-6-1-5-9-4-9"
         clip-path="url(#clipPath442-5-0-4-7-9-0-0-6-6)"
         style="fill:#000000"><g
           id="g444-1-7-0-9-6-1-9-5-8"
           transform="translate(60.7857,232.9918)"
           style="fill:#000000"><path
             d="M 0,0 H 31.134"
             style="fill:#000000;fill-opacity:1;fill-rule:nonzero;stroke:none"
             id="path446-5-4-9-6-5-9-0-6-8" /></g><g
           id="g448-4-2-3-6-2-7-8-4-2"
           transform="translate(60.7857,232.9918)"
           style="fill:#000000"><path
             d="M 0,0 C 10.041,0.327 21.093,0.33 31.134,0 21.093,-0.33 10.041,-0.327 0,0"
             style="fill:#000000;fill-opacity:1;fill-rule:nonzero;stroke:none"
             id="path450-4-2-4-3-8-3-5-6-5" /></g></g></g><g
       id="g436-5-7-2-7-4-2-5-3-4-6"
       transform="matrix(0,-0.12237425,-0.4289275,0,195.29227,15.058604)"
       style="fill:#000000"><g
         id="g438-1-8-7-6-1-5-9-4-9-3"
         clip-path="url(#clipPath442-5-0-4-7-9-0-0-6-6-1)"
         style="fill:#000000"><g
           id="g444-1-7-0-9-6-1-9-5-8-8"
           transform="translate(60.7857,232.9918)"
           style="fill:#000000"><path
             d="M 0,0 H 31.134"
             style="fill:#000000;fill-opacity:1;fill-rule:nonzero;stroke:none"
             id="path446-5-4-9-6-5-9-0-6-8-2" /></g><g
           id="g448-4-2-3-6-2-7-8-4-2-6"
           transform="translate(60.7857,232.9918)"
           style="fill:#000000"><path
             d="M 0,0 C 10.041,0.327 21.093,0.33 31.134,0 21.093,-0.33 10.041,-0.327 0,0"
             style="fill:#000000;fill-opacity:1;fill-rule:nonzero;stroke:none"
             id="path450-4-2-4-3-8-3-5-6-5-0" /></g></g></g><g
       id="g436-5-7-2-7-4-2-5-3-4-6-2"
       transform="matrix(0,-0.12237425,-0.4289275,0,106.39227,15.058604)"
       style="fill:#000000"><g
         id="g438-1-8-7-6-1-5-9-4-9-3-9"
         clip-path="url(#clipPath442-5-0-4-7-9-0-0-6-6-1-4)"
         style="fill:#000000"><g
           id="g444-1-7-0-9-6-1-9-5-8-8-7"
           transform="translate(60.7857,232.9918)"
           style="fill:#000000"><path
             d="M 0,0 H 31.134"
             style="fill:#000000;fill-opacity:1;fill-rule:nonzero;stroke:none"
             id="path446-5-4-9-6-5-9-0-6-8-2-9" /></g><g
           id="g448-4-2-3-6-2-7-8-4-2-6-8"
           transform="translate(60.7857,232.9918)"
           style="fill:#000000"><path
             d="M 0,0 C 10.041,0.327 21.093,0.33 31.134,0 21.093,-0.33 10.041,-0.327 0,0"
             style="fill:#000000;fill-opacity:1;fill-rule:nonzero;stroke:none"
             id="path450-4-2-4-3-8-3-5-6-5-0-3" /></g></g></g><g
       id="g436-5-7-2-7-4-9"
       transform="matrix(0.12237425,0,0,-0.4289275,-7.4386044,195.29227)"
       style="fill:#000000"><g
         id="g438-1-8-7-6-1-8"
         clip-path="url(#clipPath442-5-0-4-7-9-5)"
         style="fill:#000000"><g
           id="g444-1-7-0-9-6-2"
           transform="translate(60.7857,232.9918)"
           style="fill:#000000"><path
             d="M 0,0 H 31.134"
             style="fill:#000000;fill-opacity:1;fill-rule:nonzero;stroke:none"
             id="path446-5-4-9-6-5-8" /></g><g
           id="g448-4-2-3-6-2-3"
           transform="translate(60.7857,232.9918)"
           style="fill:#000000"><path
             d="M 0,0 C 10.041,0.327 21.093,0.33 31.134,0 21.093,-0.33 10.041,-0.327 0,0"
             style="fill:#000000;fill-opacity:1;fill-rule:nonzero;stroke:none"
             id="path450-4-2-4-3-8-7" /></g></g></g><g
       id="g436-5-7-2-7-4-9-0"
       transform="matrix(0.12237425,0,0,-0.4289275,-7.4386044,150.84227)"
       style="fill:#000000"><g
         id="g438-1-8-7-6-1-8-0"
         clip-path="url(#clipPath442-5-0-4-7-9-5-3)"
         style="fill:#000000"><g
           id="g444-1-7-0-9-6-2-5"
           transform="translate(60.7857,232.9918)"
           style="fill:#000000"><path
             d="M 0,0 H 31.134"
             style="fill:#000000;fill-opacity:1;fill-rule:nonzero;stroke:none"
             id="path446-5-4-9-6-5-8-9" /></g><g
           id="g448-4-2-3-6-2-3-3"
           transform="translate(60.7857,232.9918)"
           style="fill:#000000"><path
             d="M 0,0 C 10.041,0.327 21.093,0.33 31.134,0 21.093,-0.33 10.041,-0.327 0,0"
             style="fill:#000000;fill-opacity:1;fill-rule:nonzero;stroke:none"
             id="path450-4-2-4-3-8-7-7" /></g></g></g><image
       preserveAspectRatio="none"
       inkscape:svg-dpi="300"
       width="44.450001"
       height="88.900002"
       xlink:href="InsertFront_default.svg"
       id="image19758"
       x="6.3499999"
       y="-95.25"
       transform="rotate(90)"
       style="stroke-width:0;stroke-dasharray:none" /><image
       preserveAspectRatio="none"
       inkscape:svg-dpi="300"
       width="44.450001"
       height="88.900002"
       xlink:href="InsertFront_default.svg"
       id="image19758-8"
       x="50.799999"
       y="-95.25"
       transform="rotate(90)"
       style="stroke-width:0;stroke-dasharray:none" /><image
       preserveAspectRatio="none"
       inkscape:svg-dpi="300"
       width="44.450001"
       height="88.900002"
       xlink:href="InsertFront_default.svg"
       id="image19758-8-2"
       x="95.25"
       y="-95.25"
       transform="rotate(90)"
       style="stroke-width:0;stroke-dasharray:none" /></g></svg>
